<svg width="98" height="42" viewBox="0 0 98 42" fill="none" xmlns="http://www.w3.org/2000/svg">
<path d="M0.0153885 11.775L1.64144 1.91558C1.69787 1.57829 1.88766 1.26694 2.20569 0.986728C2.52884 0.706514 2.9033 0.566406 3.34444 0.566406C3.78557 0.566406 4.13438 0.690946 4.45754 0.940025C4.7807 1.1891 4.99101 1.49007 5.0936 1.83256L7.15566 8.82753H7.19156L9.25362 1.83256C9.35621 1.49526 9.56652 1.19948 9.88968 0.945214C10.2128 0.690946 10.577 0.566406 10.9925 0.566406C11.408 0.566406 11.8081 0.706514 12.1364 0.986728C12.4596 1.26694 12.6494 1.57829 12.7058 1.91558L14.3318 11.775C14.3421 11.8424 14.3472 11.9462 14.3472 12.0759C14.3472 12.4599 14.2241 12.7713 13.983 12.9996C13.7419 13.2279 13.4444 13.3421 13.0854 13.3421C12.7263 13.3421 12.3416 13.2435 12.1364 13.0463C11.9312 12.8491 11.7927 12.5378 11.7209 12.1071L10.7001 4.91491H10.6591L8.5714 12.325C8.36622 13.0048 7.89943 13.3421 7.17617 13.3421C6.45291 13.3421 5.97074 13.0048 5.78095 12.325L3.68298 4.91491H3.64708L2.61605 12.1071C2.55449 12.5326 2.42113 12.8439 2.21082 13.0411C2.00564 13.2383 1.68761 13.3369 1.26186 13.3369C0.836109 13.3369 0.605281 13.2227 0.364195 12.9892C0.123108 12.7557 0 12.4496 0 12.0707C0 11.6919 0.00512951 11.8372 0.0153885 11.7698V11.775Z" fill="#15366F"/>
<path d="M17.8909 12.0604V7.34343L14.5926 2.64207C14.4336 2.41374 14.3516 2.1491 14.3516 1.84813C14.3516 1.54715 14.4695 1.1891 14.7055 0.940025C14.9415 0.690946 15.239 0.566406 15.6032 0.566406C15.9674 0.566406 16.4495 0.742838 16.6855 1.09051L19.1989 4.77999L21.7124 1.09051C21.9432 0.737648 22.3074 0.566406 22.7947 0.566406C23.282 0.566406 23.4564 0.690946 23.6924 0.940025C23.9283 1.1891 24.0463 1.49526 24.0463 1.84813C24.0463 2.20099 23.9643 2.41374 23.8052 2.64207L20.4967 7.34343V12.0604C20.4967 12.4236 20.389 12.7298 20.1684 12.9737C19.9479 13.2227 19.6247 13.3421 19.1938 13.3421C18.7629 13.3421 18.4295 13.2175 18.2089 12.9737C17.9884 12.7246 17.8807 12.4236 17.8807 12.0604H17.8909Z" fill="#15366F"/>
<path d="M33.074 11.8943C32.915 11.7594 32.7098 11.6919 32.4688 11.6919H29.2885V1.49007C29.2885 1.20467 29.2064 0.981538 29.0525 0.815486C28.8935 0.649433 28.6781 0.566406 28.4216 0.566406C28.1651 0.566406 27.9497 0.649433 27.7906 0.815486C27.6316 0.981538 27.5547 1.20986 27.5547 1.49007V12.4029C27.5547 12.6571 27.6265 12.8803 27.7701 13.0619C27.9189 13.2487 28.1548 13.3473 28.478 13.3473H32.4739C32.7201 13.3473 32.9253 13.2798 33.0792 13.1449C33.2433 13.0048 33.3254 12.7972 33.3254 12.517C33.3254 12.2368 33.2433 12.0292 33.0792 11.8891L33.074 11.8943Z" fill="#15366F"/>
<path d="M43.0099 2.53828C42.5432 1.94672 41.9584 1.46413 41.2659 1.10608C40.5734 0.748026 39.7681 0.566406 38.8704 0.566406C37.9728 0.566406 37.1674 0.748026 36.475 1.10608C35.7825 1.46413 35.1977 1.94672 34.7309 2.53828C34.2641 3.12985 33.9102 3.82 33.6742 4.588C33.4383 5.3508 33.3203 6.14993 33.3203 6.95425C33.3203 7.75857 33.4383 8.55769 33.6742 9.3205C33.9102 10.0885 34.2641 10.7786 34.7309 11.3702C35.1977 11.9618 35.7825 12.4444 36.475 12.8024C37.1674 13.1605 37.9728 13.3421 38.8704 13.3421C39.7681 13.3421 40.5734 13.1605 41.2659 12.8024C41.9584 12.4444 42.5432 11.9618 43.0099 11.3702C43.4767 10.7786 43.8307 10.0885 44.0666 9.3205C44.3026 8.55769 44.4206 7.75857 44.4206 6.95425C44.4206 6.14993 44.3026 5.3508 44.0666 4.588C43.8307 3.82 43.4767 3.12985 43.0099 2.53828ZM42.5739 6.95425C42.5739 7.53024 42.5072 8.11662 42.3739 8.69261C42.2456 9.26861 42.0251 9.79271 41.7327 10.2494C41.4403 10.706 41.0556 11.0848 40.5888 11.365C40.122 11.6452 39.5475 11.7905 38.8704 11.7905C38.1933 11.7905 37.6137 11.6452 37.1521 11.365C36.6853 11.0796 36.3006 10.706 36.0082 10.2494C35.7158 9.78752 35.4952 9.26342 35.367 8.69261C35.2336 8.11662 35.1669 7.53024 35.1669 6.95425C35.1669 6.37825 35.2336 5.79188 35.367 5.21588C35.4952 4.63989 35.7107 4.11578 36.0082 3.65914C36.3006 3.20249 36.6853 2.82369 37.1521 2.54347C37.6188 2.26326 38.1933 2.11796 38.8704 2.11796C39.5475 2.11796 40.1272 2.26326 40.5888 2.54347C41.0556 2.82887 41.4403 3.20249 41.7327 3.65914C42.0251 4.12097 42.2405 4.64508 42.3739 5.21588C42.5072 5.79188 42.5739 6.37825 42.5739 6.95425Z" fill="#15366F"/>
<path d="M52.0597 0.764877C51.9007 0.629959 51.6955 0.5625 51.4544 0.5625H45.2734C45.0272 0.5625 44.8271 0.629959 44.6681 0.764877C44.5039 0.904984 44.4219 1.11255 44.4219 1.39276C44.4219 1.67298 44.5039 1.88054 44.6681 2.02065C44.8271 2.15557 45.0323 2.22303 45.2734 2.22303H47.4944V12.4249C47.4944 12.7103 47.5765 12.9334 47.7304 13.0995C47.8894 13.2655 48.0997 13.3486 48.3613 13.3486C48.6229 13.3486 48.8332 13.2655 48.9923 13.0995C49.1513 12.9334 49.2282 12.7051 49.2282 12.4249V2.22303H51.4493C51.6955 2.22303 51.9007 2.15557 52.0546 2.02065C52.2187 1.88054 52.3008 1.67298 52.3008 1.39276C52.3008 1.11255 52.2187 0.904984 52.0546 0.764877H52.0597Z" fill="#15366F"/>
<path d="M60.8331 0.764877C60.6741 0.629959 60.4689 0.5625 60.2279 0.5625H54.0468C53.8006 0.5625 53.6005 0.629959 53.4415 0.764877C53.2774 0.904984 53.1953 1.11255 53.1953 1.39276C53.1953 1.67298 53.2774 1.88054 53.4415 2.02065C53.6005 2.15557 53.8057 2.22303 54.0468 2.22303H56.2679V12.4249C56.2679 12.7103 56.35 12.9334 56.5038 13.0995C56.6629 13.2655 56.8732 13.3486 57.1348 13.3486C57.3964 13.3486 57.6067 13.2655 57.7657 13.0995C57.9247 12.9334 58.0017 12.7051 58.0017 12.4249V2.22303H60.2227C60.4689 2.22303 60.6741 2.15557 60.828 2.02065C60.9922 1.88054 61.0742 1.67298 61.0742 1.39276C61.0742 1.11255 60.9922 0.904984 60.828 0.764877H60.8331Z" fill="#15366F"/>
<path d="M67.2851 2.22303C67.5313 2.22303 67.7365 2.15557 67.8904 2.02065C68.0546 1.88054 68.1366 1.67298 68.1366 1.39276C68.1366 1.11255 68.0546 0.904984 67.8904 0.764877C67.7314 0.629959 67.5262 0.5625 67.2851 0.5625H62.8686C62.5455 0.5625 62.3095 0.661094 62.1608 0.847903C62.0171 1.02952 61.9453 1.25266 61.9453 1.51211V12.3938C61.9453 12.6532 62.0171 12.8763 62.1608 13.058C62.3095 13.25 62.5455 13.3434 62.8686 13.3434H67.2851C67.5313 13.3434 67.7365 13.2759 67.8904 13.141C68.0546 13.0009 68.1366 12.7933 68.1366 12.5131C68.1366 12.2329 68.0546 12.0253 67.8904 11.8852C67.7314 11.7503 67.5262 11.6828 67.2851 11.6828H63.6842V7.77542H66.9517C67.1979 7.77542 67.4031 7.70796 67.557 7.57304C67.7211 7.43293 67.8032 7.22537 67.8032 6.94515C67.8032 6.66494 67.7211 6.45737 67.557 6.31727C67.398 6.18235 67.1928 6.11489 66.9517 6.11489H63.6842V2.20746H67.2851V2.22303Z" fill="#15366F"/>
<path d="M73.6325 7.743L74.0736 7.73262C74.5455 7.70667 74.9969 7.62884 75.4124 7.48873C75.833 7.34862 76.2024 7.13068 76.5255 6.84008C76.8435 6.54949 77.1 6.17069 77.2847 5.71404C77.4693 5.26258 77.5617 4.70216 77.5617 4.0587C77.5617 3.41525 77.4488 3.04163 77.2283 2.61612C77.0077 2.1958 76.7153 1.82218 76.3562 1.51602C75.9972 1.20986 75.5817 0.97116 75.1098 0.810296C74.643 0.649432 74.1506 0.566406 73.653 0.566406H70.8061C70.483 0.566406 70.247 0.659811 70.0982 0.851809C69.9546 1.03343 69.8828 1.25656 69.8828 1.51083V12.4236C69.8828 12.709 69.9649 12.9373 70.1188 13.0982C70.2778 13.2642 70.4881 13.3473 70.7497 13.3473C71.0113 13.3473 71.2216 13.2642 71.3806 13.0982C71.5396 12.9321 71.6166 12.7038 71.6166 12.4236V7.94537L76.1921 12.9737C76.2896 13.0723 76.3922 13.1553 76.505 13.2331C76.6281 13.3161 76.782 13.3577 76.9615 13.3577C77.1411 13.3577 77.3719 13.2902 77.5258 13.1605C77.6848 13.0255 77.7617 12.8595 77.7617 12.6675C77.7617 12.3873 77.654 12.1278 77.4386 11.9047L73.6274 7.75856L73.6325 7.743ZM73.612 6.37306H71.6217V2.11277H73.5812C73.9249 2.11277 74.2378 2.16985 74.5096 2.28401C74.7815 2.39818 75.0174 2.54866 75.2124 2.73028C75.4022 2.9119 75.556 3.12985 75.6586 3.37374C75.7612 3.61763 75.8176 3.88227 75.8176 4.16249C75.8176 4.94086 75.6432 5.51166 75.2996 5.85415C74.9559 6.19663 74.3865 6.37306 73.6171 6.37306H73.612Z" fill="#15366F"/>
<path d="M80.1689 0.5625C79.9073 0.5625 79.697 0.645527 79.538 0.811579C79.3789 0.977632 79.2969 1.20077 79.2969 1.48098V12.4249C79.2969 12.7051 79.3789 12.9334 79.538 13.0943C79.697 13.2603 79.9073 13.3434 80.1689 13.3434C80.4305 13.3434 80.6408 13.2603 80.7998 13.0943C80.9588 12.9282 81.0409 12.7051 81.0409 12.4249V1.48098C81.0409 1.20077 80.9588 0.972443 80.7998 0.811579C80.6408 0.645527 80.4305 0.5625 80.1689 0.5625Z" fill="#15366F"/>
<path d="M88.1211 2.22303C88.3673 2.22303 88.5725 2.15557 88.7263 2.02065C88.8905 1.88054 88.9726 1.67298 88.9726 1.39276C88.9726 1.11255 88.8905 0.904984 88.7263 0.764877C88.5673 0.629959 88.3621 0.5625 88.1211 0.5625H83.7046C83.3814 0.5625 83.1454 0.661094 82.9967 0.847903C82.8531 1.02952 82.7812 1.25266 82.7812 1.51211V12.3938C82.7812 12.6532 82.8531 12.8763 82.9967 13.058C83.1454 13.25 83.3814 13.3434 83.7046 13.3434H88.1211C88.3673 13.3434 88.5725 13.2759 88.7263 13.141C88.8905 13.0009 88.9726 12.7933 88.9726 12.5131C88.9726 12.2329 88.8905 12.0253 88.7263 11.8852C88.5673 11.7503 88.3621 11.6828 88.1211 11.6828H84.5201V7.77542H87.7876C88.0339 7.77542 88.239 7.70796 88.3929 7.57304C88.5571 7.43293 88.6391 7.22537 88.6391 6.94515C88.6391 6.66494 88.5571 6.45737 88.3929 6.31727C88.2339 6.18235 88.0287 6.11489 87.7876 6.11489H84.5201V2.20746H88.1211V2.22303Z" fill="#15366F"/>
<path d="M97.2637 7.60931C96.9662 7.17861 96.5866 6.82055 96.1403 6.55591C95.6992 6.29126 95.2119 6.07851 94.6938 5.91245C94.1911 5.75159 93.7141 5.58035 93.2781 5.39354C92.8523 5.21192 92.4984 4.99397 92.2163 4.7449C91.9444 4.50101 91.8162 4.17928 91.8162 3.75377C91.8162 3.32826 91.9854 2.87161 92.3394 2.56545C92.6933 2.25929 93.1447 2.10362 93.6884 2.10362C94.2322 2.10362 94.3604 2.14513 94.5912 2.22297C94.8221 2.30081 95.0221 2.39421 95.1811 2.49799C95.3504 2.60178 95.4991 2.70037 95.6274 2.77821C95.771 2.87161 95.9403 2.91832 96.1352 2.91832C96.3301 2.91832 96.5507 2.84048 96.6892 2.67961C96.8277 2.52394 96.8995 2.33713 96.8995 2.12438C96.8995 1.91162 96.802 1.67811 96.6071 1.47573C96.4225 1.28373 96.1814 1.11768 95.8839 0.982763C95.5915 0.853034 95.2581 0.744062 94.8836 0.666225C94.5092 0.588388 94.1244 0.546875 93.7346 0.546875C93.155 0.546875 92.6215 0.650657 92.1598 0.847845C91.6982 1.05022 91.2981 1.30968 90.9749 1.62103C90.6518 1.93757 90.4004 2.29043 90.226 2.67443C90.0516 3.06361 89.9644 3.44761 89.9644 3.81604C89.9644 4.50619 90.1183 5.06662 90.4209 5.48175C90.7185 5.8917 91.098 6.22899 91.5443 6.48326C91.9854 6.73234 92.4727 6.94509 92.9857 7.10596C93.4884 7.26682 93.9654 7.43806 94.4014 7.62487C94.8221 7.80649 95.1811 8.02963 95.4632 8.29946C95.73 8.55373 95.8685 8.91697 95.8685 9.36843C95.8685 9.81988 95.812 10.0119 95.6992 10.3025C95.5863 10.5879 95.4273 10.8473 95.217 11.0653C95.0067 11.2832 94.7502 11.4597 94.4476 11.5894C94.1501 11.7139 93.8013 11.7814 93.4217 11.7814C93.0421 11.7814 92.7036 11.7347 92.4266 11.6361C92.1445 11.5375 91.888 11.4285 91.6674 11.3092C91.4417 11.1846 91.2468 11.0757 91.0878 10.9771C90.9082 10.8681 90.7441 10.811 90.6005 10.811C90.344 10.811 90.1491 10.9044 90.026 11.0964C89.908 11.2728 89.8516 11.4804 89.8516 11.7087C89.8516 11.9371 89.9644 12.1913 90.1901 12.3937C90.4004 12.5857 90.6825 12.7518 91.0211 12.8867C91.3596 13.0268 91.7392 13.1306 92.1598 13.2084C92.5753 13.2862 92.9959 13.3226 93.4114 13.3226C94.0988 13.3226 94.7143 13.2136 95.2478 12.9956C95.7813 12.7777 96.2378 12.4819 96.602 12.1135C96.9662 11.7451 97.2483 11.3144 97.4381 10.8318C97.6279 10.3492 97.7253 9.84064 97.7253 9.32172C97.7253 8.80281 97.5715 8.02963 97.2688 7.58855L97.2637 7.60931Z" fill="#15366F"/>
<path d="M24.4318 15.1133H0V41.8789H24.4318V15.1133Z" fill="#FB7E17"/>
<path d="M48.8615 15.1133H24.4297V41.8789H48.8615V15.1133Z" fill="#02BFDA"/>
<path d="M97.7182 15.1133H73.2812V41.8789H97.7182V15.1133Z" fill="#FFBE00"/>
<path d="M73.2963 15.1133H48.8594V41.8789H73.2963V15.1133Z" fill="#004795"/>
<path d="M4.71909 38.3399C4.19588 38.3399 3.8163 38.2621 3.57521 38.1116C3.33413 37.9611 3.18537 37.7483 3.12895 37.4785C3.07252 37.2035 3.04688 36.9181 3.04688 36.6171V20.3284C3.04688 20.0274 3.07765 19.7472 3.14434 19.4981C3.21102 19.2438 3.3649 19.0363 3.60599 18.8754C3.84708 18.7146 4.22666 18.6367 4.74987 18.6367H14.4857C15.3218 18.6367 16.1476 18.7768 16.953 19.0622C17.7634 19.3424 18.5021 19.768 19.1689 20.3336C19.8409 20.8992 20.3743 21.5945 20.7744 22.4248C21.1745 23.2551 21.3746 24.2202 21.3746 25.3307C21.3746 26.4412 21.1745 27.3752 20.7744 28.1951C20.3743 29.015 19.8409 29.7052 19.1689 30.2708C18.4969 30.8364 17.7532 31.2567 16.9376 31.5421C16.1168 31.8223 15.291 31.9676 14.4549 31.9676H6.41696V36.6534C6.41696 36.9544 6.38618 37.2346 6.3195 37.4993C6.25281 37.7639 6.10406 37.9715 5.87323 38.122C5.6424 38.2725 5.25256 38.3503 4.71396 38.3503L4.71909 38.3399ZM6.42209 28.5169H14.4857C15.0602 28.5169 15.6193 28.3975 16.1579 28.164C16.6965 27.9305 17.1427 27.5724 17.4967 27.0898C17.8506 26.6124 18.025 26.0053 18.025 25.2684C18.025 24.5316 17.8609 24.0386 17.5377 23.5612C17.2146 23.0838 16.7786 22.7102 16.24 22.4456C15.7014 22.1809 15.1063 22.0512 14.4549 22.0512H6.41696V28.5169H6.42209Z" fill="white"/>
<path d="M29.5702 38.3671C29.047 38.3671 28.6674 38.2893 28.4263 38.1284C28.1852 37.9676 28.0313 37.7548 27.9646 37.4954C27.898 37.2307 27.8672 36.9505 27.8672 36.6495V20.3608C27.8672 20.0391 27.8928 19.7485 27.9493 19.4838C28.0057 19.2192 28.1544 19.0116 28.3955 18.8611C28.6366 18.7106 29.0162 18.6328 29.5394 18.6328C30.0626 18.6328 30.4627 18.7106 30.6987 18.8611C30.9295 19.0116 31.0783 19.2192 31.1449 19.4838C31.2116 19.7485 31.2424 20.0391 31.2424 20.3608V35.3211H43.9123C44.1893 35.3211 44.4406 35.3471 44.6663 35.3938C44.892 35.4405 45.0715 35.5754 45.21 35.7881C45.3485 36.0061 45.4203 36.3486 45.4203 36.8208C45.4203 37.293 45.3485 37.6355 45.21 37.8534C45.0715 38.0714 44.892 38.2115 44.6817 38.2789C44.4663 38.3464 44.22 38.3775 43.943 38.3775H29.5753L29.5702 38.3671Z" fill="white"/>
<path d="M71.8834 35.77C72.104 36.1229 72.2168 36.4342 72.2271 36.7041C72.2374 36.9739 72.1502 37.2074 71.9655 37.415C71.7808 37.6173 71.4987 37.8249 71.114 38.0273C70.5651 38.3231 70.1291 38.4061 69.806 38.2764C69.4828 38.1466 69.1597 37.8042 68.8314 37.2489L61.0499 23.5859L53.2941 37.2178C52.9658 37.773 52.6324 38.1103 52.3041 38.2348C51.9758 38.3542 51.5347 38.2867 50.9858 38.0273C50.6165 37.8249 50.3498 37.6173 50.1754 37.415C50.001 37.2126 49.924 36.9739 49.9394 36.7041C49.9599 36.4342 50.0574 36.1073 50.2421 35.7181L59.4854 19.611C59.6342 19.3515 59.8445 19.1232 60.1164 18.9312C60.3933 18.734 60.7114 18.6406 61.0807 18.6406C61.45 18.6406 61.5629 18.6873 61.7527 18.7807C61.9476 18.8741 62.1169 18.9935 62.2759 19.144C62.4298 19.2945 62.5529 19.4501 62.6452 19.6162L71.8886 35.7804L71.8834 35.77Z" fill="white"/>
<path d="M94.9351 19.1816C95.4121 19.5915 95.6686 19.9703 95.7045 20.3232C95.7404 20.6761 95.5763 21.0549 95.2121 21.4648L87.2716 30.468V36.6638C87.2716 36.9804 87.2408 37.2606 87.1742 37.5097C87.1075 37.7587 86.9587 37.9663 86.7228 38.122C86.4868 38.2776 86.1072 38.3607 85.5943 38.3607C85.0813 38.3607 84.6812 38.2828 84.4555 38.122C84.2247 37.9663 84.0811 37.7587 84.0144 37.4941C83.9477 37.2346 83.9169 36.9388 83.9169 36.6067V30.6029L75.7867 21.4596C75.4225 21.0549 75.2583 20.6709 75.3045 20.318C75.3507 19.9651 75.6123 19.5967 76.0893 19.2075C76.4381 18.9117 76.7356 18.7301 76.9818 18.6679C77.228 18.6056 77.4691 18.6367 77.6948 18.7665C77.9257 18.8962 78.1668 19.1089 78.4232 19.4047L85.4814 27.4635L92.596 19.4047C92.8525 19.0882 93.0936 18.8702 93.3244 18.7509C93.5553 18.6315 93.7912 18.6004 94.0374 18.6679C94.2836 18.7353 94.5812 18.9066 94.93 19.1816H94.9351Z" fill="white"/>
<path d="M61.0782 33.0785C62.0103 33.0785 62.7658 32.3142 62.7658 31.3713C62.7658 30.4284 62.0103 29.6641 61.0782 29.6641C60.1462 29.6641 59.3906 30.4284 59.3906 31.3713C59.3906 32.3142 60.1462 33.0785 61.0782 33.0785Z" fill="white"/>
</svg>
