<svg width="119" height="57" xmlns="http://www.w3.org/2000/svg" viewBox="0 0 119 57"><g fill="none" fill-rule="evenodd"><path d="M.243 7.24c0-2.251 1.987-4.23 4.247-4.23h6.989c2.26 0 4.247 1.979 4.247 4.23v3.657c2.222-2.87 5.908-4.496 10.188-4.496 2.56 0 4.905.581 6.853 1.662.16-.16.333-.31.516-.445 1.13-4.226 6.836-4.144 9.987-4.798 2.008-.416 3.72.365 4.56 1.875 2.262-1.327 5.56-1.433 7.689-1.875 2.855-.592 5.113 1.236 5.113 4.141v.405c.335.198.644.44.916.718C63.414 7.016 65.727 6.4 68.431 6.4c3.06 0 5.454.77 7.263 2.054.317-.32.64-.566.933-.683 2.288-.92 5.443-1.37 9.11-1.37.507-4.437 5.034-6.176 7.854-6.176 2.946 0 7.754 1.898 7.754 6.786 0 .142-.004.282-.012.42 1.597-.348 3.666-.636 6.188-.636 5.314 0 11.202 2.393 11.202 9.83v7.578c0 1.122-1.51 3.423-2.542 3.874-2.223.97-5.423 1.406-8.911 1.406-2.425 0-5.334-.367-7.698-1.56-.137.11-.28.213-.429.307 4.076 1.153 7.417 4.09 7.417 9.896v8.48c0 1.122-1.51 3.424-2.54 3.874-2.394 1.045-5.893 1.531-9.771 1.531-2.405 0-5.141-.32-7.488-1.28v1.877c0 2.25-1.987 4.23-4.247 4.23h-7.42c-1.858 0-3.532-1.34-4.068-3.067h-5.999c-2.25 0-4.23-1.963-4.247-4.202-2.17.572-4.851.841-7.743.841-2.054 0-4.35-.233-6.438-.899-.359 1.105-1.438 2.75-2.138 3.12-1.256.662-3.352 1.16-5.61 1.16-2.938 0-5.554-.806-7.477-2.3-.475 1.81-2.198 3.238-4.118 3.238h-7.419c-2.26 0-4.247-1.978-4.247-4.23V28.885H4.49c-2.26 0-4.247-1.979-4.247-4.23V7.24z" fill="#00539C"/><path fill="#FFE200" d="M4.49 24.654V7.24h6.989v13.49h4.523v3.924zM78.804 35.928c-2.136 0-3.877-1.26-3.877-2.828 0-1.566 1.741-2.826 3.877-2.826 2.136 0 3.878 1.26 3.878 2.826 0 1.568-1.742 2.828-3.878 2.828M75.095 52.609h7.419V37.523h-7.42zM19.837 50.5h7.419V28.53h-7.419zM65.027 49.542h6.07V27.57h-6.07zM93.591 9.568c-1.931 0-3.507-1.139-3.507-2.556 0-1.418 1.576-2.557 3.507-2.557s3.507 1.14 3.507 2.557-1.576 2.556-3.507 2.556M90.237 24.654h6.709V11.011h-6.71zM87.568 14.707c-.94-.456-1.931-.558-2.643-.405v10.352h-6.71v-12.96c1.576-.633 4.118-1.063 7.523-1.063 1.068 0 2.288.076 2.949.152l-1.119 3.924M55.394 25.034c-3.863 0-5.718-1.924-5.718-4.48v-5.822h-1.677v-3.72h1.677V8.353l6.71-1.393v4.05h2.16v3.721h-2.16v5.189c0 1.012.355 1.24.965 1.24.483 0 .712-.075 1.195-.253v3.543c-.432.228-1.627.583-3.152.583M38.852 49.563c-4.44 0-6.572-2.212-6.572-5.15v-6.69h-1.928v-4.277h1.928V30.39l7.711-1.6v4.655h2.483v4.277H39.99v5.963c0 1.164.409 1.426 1.11 1.426.555 0 .818-.087 1.373-.292v4.074c-.497.262-1.87.669-3.622.669M43.145 25.034c-3.863 0-5.718-1.924-5.718-4.48v-5.822H35.75v-3.72h1.677V8.353l6.709-1.393v4.05h2.16v3.721h-2.16v5.189c0 1.012.356 1.24.966 1.24.483 0 .711-.075 1.194-.253v3.543c-.432.228-1.626.583-3.151.583M25.914 25.034c-5.108 0-8.183-2.911-8.183-7.214 0-4.303 3.075-7.188 8.183-7.188s8.184 2.885 8.184 7.188-3.076 7.214-8.184 7.214m0-10.758c-1.042 0-1.347 1.29-1.347 3.443 0 2.126.305 3.392 1.347 3.392s1.347-1.266 1.347-3.392c0-2.152-.305-3.443-1.347-3.443M66.78 19.718c.38.937 1.067 1.393 2.845 1.393 1.958 0 3.762-.33 4.677-.684l1.195 3.544c-1.347.48-3.406 1.063-6.684 1.063-5.795 0-8.438-3.392-8.438-7.24 0-3.923 2.567-7.162 8.056-7.162 5.49 0 7.574 3.315 7.574 7.973l-9.225 1.113zm1.346-5.745c-1.346 0-2.083 1.088-1.855 3.037l3.456-.48c0-1.596-.432-2.557-1.6-2.557zM107.27 25.254c-5.072 0-7.909-1.5-7.909-4.626 0-3.426 4.244-4.376 8.913-4.726v-.425c0-.725-.728-.95-2.084-.95-1.556 0-3.313.375-4.52.8l-1.33-3.251c1.306-.425 3.716-1.05 7.181-1.05 4.219 0 6.955 1.575 6.955 5.601v7.577c-1.431.625-3.942 1.05-7.206 1.05m1.004-6.902c-1.53.05-2.71.425-2.71 2.026 0 1.175.702 1.7 1.982 1.7.352 0 .553-.025.728-.075v-3.651M53.037 46.182c-5.677 0-8.852-1.68-8.852-5.178 0-3.835 4.75-4.898 9.975-5.29v-.475c0-.812-.814-1.064-2.331-1.064-1.743 0-3.71.42-5.06.896l-1.488-3.639c1.46-.476 4.159-1.175 8.036-1.175 4.722 0 7.785 1.763 7.785 6.269v8.481c-1.602.7-4.412 1.175-8.065 1.175m1.123-7.725c-1.713.056-3.034.476-3.034 2.267 0 1.316.787 1.903 2.22 1.903.393 0 .618-.028.814-.084v-4.086M94.249 47.783c-5.677 0-8.852-1.68-8.852-5.178 0-3.835 4.75-4.899 9.975-5.29v-.475c0-.813-.813-1.065-2.332-1.065-1.742 0-3.709.42-5.058.896l-1.49-3.638c1.462-.476 4.16-1.176 8.038-1.176 4.72 0 7.783 1.763 7.783 6.27v8.48c-1.6.7-4.41 1.176-8.064 1.176m1.123-7.726c-1.713.057-3.034.477-3.034 2.268 0 1.316.787 1.903 2.22 1.903.394 0 .618-.028.814-.084v-4.087"/></g></svg>