<svg width="93" height="80" viewBox="0 0 93 80" fill="none" xmlns="http://www.w3.org/2000/svg">
<g clip-path="url(#clip0_1645_35149)">
<path d="M49.2519 23.4094C64.5191 23.9524 80.6041 26.5907 86.3293 28.7626C91.0879 30.5693 93.0409 34.301 92.6493 48.3838C92.2354 63.2342 91.472 69.0983 81.2485 69.0983C75.5481 69.0983 47.17 69.1106 38.4335 69.1106C38.4335 69.1106 37.9998 78.9952 31.8657 79.9134C23.6249 81.1474 14.8884 68.6837 14.8884 68.6837C14.8884 68.6837 8.10739 69.1476 3.50989 63.9326C-0.118534 59.8159 -0.482864 53.9345 0.411851 50.7062C1.2446 47.6977 4.28812 46.3452 4.28812 46.3452C3.19018 41.5448 2.00301 34.7625 2.08727 28.385C2.15171 23.4193 2.9919 14.28 9.31191 12.9102C14.6133 11.7601 16.1276 15.6547 16.1276 15.6547C16.1276 15.6547 19.4661 9.65237 25.8728 8.90455C33.5312 8.01111 35.452 14.9439 35.452 14.9439C35.452 14.9439 43.7027 1.33745 51.594 0.142901C59.3193 -1.02943 62.2017 5.05929 58.3849 10.6692C55.8891 14.3392 51.0735 19.1964 49.2519 23.4069V23.4094Z" fill="#003671"/>
<path d="M18.6207 18.6167C18.6207 18.6167 18.6207 18.6192 18.6207 18.6217C17.6963 21.4674 17.8276 24.3402 18.9578 26.1197C19.7038 27.292 20.8241 27.9806 22.2938 28.1706C26.5567 28.5458 30.2867 23.8318 31.6375 19.2041C32.3389 16.6448 32.1555 14.5617 31.1071 13.1821C30.2743 12.0838 28.9087 11.4939 27.1515 11.4717C23.2951 11.5778 20.1896 14.1816 18.6232 18.6167H18.6207Z" fill="#FFD500"/>
<path d="M5.14742 58.16C5.14742 58.16 5.7819 60.206 7.51433 60.6453C9.06831 61.0377 9.10548 60.1986 9.95559 60.2381C10.8379 60.28 11.4179 61.0624 11.403 61.9731C11.3757 63.5626 9.78953 64.3375 7.80678 63.7082C5.26639 62.9011 3.51661 59.8111 2.81769 56.4521C2.11878 53.093 2.87966 50.1066 5.37048 50.2967C8.30247 50.5213 10.2431 55.2032 10.6025 57.0222C10.9048 58.5524 10.4934 59.2015 9.48468 58.9991C8.47596 58.7967 5.14742 58.16 5.14742 58.16ZM7.68782 55.7857C7.68782 55.7857 7.07812 53.3349 5.70755 53.1868C4.43116 53.0486 4.6443 55.2575 4.6443 55.2575C5.56132 55.4747 7.68782 55.7881 7.68782 55.7881V55.7857Z" fill="#FFD500"/>
<path d="M24.8809 64.5349C24.7817 59.9245 25.6566 53.742 26.4125 51.7157C27.0743 49.9461 29.3867 49.0626 32.0981 49.4007C34.6509 49.7191 36.822 51.654 36.2024 54.6157C35.4935 58.0044 34.2494 70.4163 33.89 73.5582C33.538 76.6112 29.8724 79.4494 23.2748 73.2694C19.1036 69.3624 12.2161 57.2886 11.1999 53.9296C10.4663 51.5035 11.7551 50.1066 12.9373 49.5957C14.4566 48.9392 17.0441 49.4698 17.8322 51.5454C18.6203 53.6211 21.7432 60.3244 24.8833 64.5349H24.8809Z" fill="#FFD500"/>
<path d="M31.7441 28.7927C36.411 17.5654 41.6306 8.98397 47.5491 4.6994C50.548 2.5275 53.5544 1.57236 55.6858 2.89524C58.6178 4.71668 57.1208 8.00415 55.6214 9.63307C54.1219 11.262 47.3038 19.2783 43.4275 28.3509C38.7383 26.0285 34.1309 27.1687 31.7441 28.7927Z" fill="#FFD500"/>
<path d="M4.90508 30.8979C4.53331 25.4262 4.84808 22.2992 5.41564 20.2408C5.98072 18.1824 7.4083 15.2972 10.0181 14.8727C11.8769 14.5716 13.2648 15.354 12.5213 17.8319C11.8199 20.1766 11.3738 22.3855 11.4011 25.5447C8.14687 25.8581 5.58417 28.5113 4.90508 30.8954V30.8979Z" fill="#FFD500"/>
<path d="M81.2304 34.1483V54.8184C81.2304 56.1635 82.2218 57.6123 84.3978 57.6123C86.5739 57.6123 87.5653 56.1117 87.5653 54.8184V34.1483C87.5653 32.7909 86.5739 31.3545 84.3978 31.3545C82.2218 31.3545 81.2304 32.8329 81.2304 34.1483ZM80.9082 62.9211C80.9082 64.7425 82.4795 66.2826 84.3408 66.2826C86.2021 66.2826 87.7735 64.7425 87.7735 62.9211C87.7735 61.0997 86.2021 59.5621 84.3408 59.5621C82.4795 59.5621 80.9082 61.0997 80.9082 62.9211Z" fill="#FFD500"/>
<path d="M37.9375 52.1133V63.5997C37.9375 65.0953 38.9809 66.2233 40.3614 66.2233C41.7419 66.2233 42.7878 65.0953 42.7878 63.5997V52.1133C42.7878 50.6177 41.7444 49.4897 40.3614 49.4897C38.9784 49.4897 37.9375 50.6177 37.9375 52.1133Z" fill="#FFD500"/>
<path d="M74.2461 52.1133V63.5997C74.2461 65.0953 75.2895 66.2233 76.6725 66.2233C78.0554 66.2233 79.0989 65.0953 79.0989 63.5997V52.1133C79.0989 50.6177 78.0554 49.4897 76.6725 49.4897C75.2895 49.4897 74.2461 50.6177 74.2461 52.1133Z" fill="#FFD500"/>
<path d="M49.3823 51.0596C49.0031 50.413 48.2472 49.7688 47.1418 49.7688C45.7713 49.7688 44.7402 50.8178 44.7402 52.3011V63.6048C44.7402 65.1054 45.7737 66.2111 47.1418 66.2111C48.5099 66.2111 49.5434 65.098 49.5434 63.6048V56.3512C49.5434 54.8012 50.4282 53.7844 51.7939 53.7844C53.1595 53.7844 54.0443 54.816 54.0443 56.3512V63.6048C54.0443 65.1054 55.0778 66.2086 56.4459 66.2086C57.814 66.2086 58.85 65.0955 58.85 63.6048V55.0258C58.85 51.5286 56.721 49.4727 53.157 49.4727C51.4047 49.4727 50.1705 49.9959 49.3823 51.0572V51.0596Z" fill="#FFD500"/>
<path d="M60.2285 57.8788C60.2285 62.7409 63.2919 66.2727 67.5151 66.2727C69.1385 66.2727 72.6603 65.4335 72.7025 62.9432C72.7198 61.961 71.7508 60.1272 69.9018 60.991C66.2759 62.6792 64.8186 60.2531 64.8186 57.8812C64.8186 55.6378 66.266 53.1574 69.5301 54.6308C71.7458 55.6304 72.7198 53.9595 72.6975 52.6711C72.6554 50.3191 69.9068 49.4849 67.5151 49.4849C63.2943 49.4849 60.2285 53.0142 60.2285 57.8788Z" fill="#FFD500"/>
<path d="M12.1023 27.6819C9.29174 28.141 5.96816 31.7543 5.66579 37.453C5.41794 43.0901 7.70058 46.7354 11.4975 46.8095C15.2945 46.8835 18.1472 43.0531 18.3702 37.5764C18.4223 36.3202 18.0803 34.8393 16.4569 34.8591C15.1061 34.8764 13.7777 34.9726 12.6922 35.1182C10.6177 35.3947 10.5161 39.1905 12.3452 39.2819C13.401 39.3362 14.4271 39.1585 14.4271 39.1585C14.4271 39.1585 14.1197 42.6977 11.5 42.6853C9.12816 42.6755 8.41685 39.7138 8.57795 37.2482C8.78862 34.0347 10.2881 31.6062 12.1271 31.5C14.1495 31.384 14.5212 32.9562 15.867 32.9784C17.4631 33.0031 18.6726 30.3647 16.8014 28.5927C15.872 27.7116 14.1792 27.3413 12.1048 27.6819H12.1023Z" fill="white"/>
<path d="M26.6877 30.9521C25.4931 30.9521 24.4843 31.932 23.949 32.5712C23.6838 31.9912 23.2179 31.3075 22.1323 31.3618C21.0467 31.4161 20.152 32.4379 20.0851 33.7312C19.8769 37.2136 19.7852 43.0111 19.8472 44.3784C19.9091 45.7458 20.732 46.4837 21.8076 46.501C22.8833 46.5183 23.7507 45.9136 23.7507 44.3735C23.7507 42.6952 23.7235 40.7331 23.7755 38.9043C23.8325 36.6509 24.4992 36.1993 26.078 35.6538C27.5105 35.1602 28.6754 34.7036 28.7621 33.1166C28.834 31.7839 27.9269 30.9521 26.6901 30.9521H26.6877Z" fill="white"/>
<path d="M64.3672 38.7463C64.3672 43.063 67.2769 46.4442 70.992 46.4442C72.5733 46.4442 73.6564 45.9827 74.5808 44.9214C74.8188 45.3509 75.4235 46.1777 76.5784 46.1777C77.8449 46.1777 78.8016 45.1905 78.8016 43.8824V33.6127C78.8016 32.3022 77.8474 31.3174 76.5784 31.3174C75.421 31.3174 74.8163 32.1418 74.5808 32.5712C73.6564 31.5099 72.5733 31.041 70.992 31.041C67.2769 31.041 64.3672 34.4297 64.3672 38.7463ZM68.4764 38.7463C68.4764 37.0384 69.334 35.3157 71.2473 35.3157C73.1607 35.3157 74.0157 37.0384 74.0157 38.7463C74.0157 40.4542 73.1582 42.1769 71.2473 42.1769C69.3365 42.1769 68.4764 40.4542 68.4764 38.7463Z" fill="white"/>
<path d="M28.8613 38.7266C28.8613 43.068 31.7214 46.464 35.3747 46.464C36.9311 46.464 37.9944 46.005 38.9015 44.9388C39.1344 45.3707 39.7293 46.2024 40.8669 46.2024C42.1135 46.2024 43.0528 45.2102 43.0528 43.8948V33.5659C43.0528 32.2479 42.1135 31.2879 40.8669 31.2879C39.7293 31.2879 39.1344 32.0875 38.9015 32.5194C37.9919 31.4508 36.9286 30.9917 35.3747 30.9917C31.7214 30.9917 28.8613 34.3878 28.8613 38.7291V38.7266ZM32.9037 38.7266C32.9037 37.0089 33.7463 35.2763 35.6275 35.2763C37.5086 35.2763 38.3513 37.0089 38.3513 38.7266C38.3513 40.4444 37.5086 42.177 35.6275 42.177C33.7463 42.177 32.9037 40.4444 32.9037 38.7266Z" fill="white"/>
<path d="M56.322 29.0589V31.3617C56.322 31.3617 55.0828 31.5566 54.079 31.5566C53.0753 31.5566 51.7493 31.3567 51.7493 31.3567V29.0589C51.7493 27.7509 50.7951 26.7661 49.5286 26.7661C48.2621 26.7661 47.3055 27.7533 47.3055 29.0589V31.3715H46.6462C45.4888 31.3715 44.6064 32.2971 44.6064 33.6224C44.6064 34.9478 45.5111 35.7844 46.6462 35.7844H47.3055V44.0697C47.3055 45.3778 48.2597 46.3626 49.5286 46.3626C50.7976 46.3626 51.7493 45.3507 51.7493 44.0697V35.8067C51.7493 35.8067 53.0728 35.6092 54.1088 35.6092C55.1448 35.6092 56.3195 35.7992 56.3195 35.7992V44.0697C56.3195 45.3556 57.2737 46.3626 58.5427 46.3626C59.8116 46.3626 60.7634 45.3754 60.7634 44.0697V35.7844H61.7423C63.1749 35.7844 64.0101 34.9453 64.0101 33.6224C64.0101 32.2995 63.1997 31.3715 61.7423 31.3715H60.7634V29.0589C60.7634 27.7509 59.8092 26.7661 58.5427 26.7661C57.2762 26.7661 56.3195 27.7533 56.3195 29.0589H56.322Z" fill="white"/>
</g>
<defs>
<clipPath id="clip0_1645_35149">
<rect width="92.6984" height="80" fill="white"/>
</clipPath>
</defs>
</svg>
